<?xml version="1.0" encoding="utf-8"?>
<!-- Generator: Adobe Illustrator 15.1.0, SVG Export Plug-In . SVG Version: 6.00 Build 0)  -->
<!DOCTYPE svg PUBLIC "-//W3C//DTD SVG 1.1 Tiny//EN" "http://www.w3.org/Graphics/SVG/1.1/DTD/svg11-tiny.dtd">
<svg version="1.1" baseProfile="tiny" id="Layer_1" xmlns="http://www.w3.org/2000/svg" xmlns:xlink="http://www.w3.org/1999/xlink"
	 x="0px" y="0px" width="183px" height="697px" viewBox="0 4.264 183 697" overflow="inherit" xml:space="preserve">
<path id="punctum" d="M183,43.264c-11.333-26-58.69-39.066-92-39c-33.001,0.065-91,10.364-91,39v181c4.667,0,15.333-3.5,32-10.5
	s36.333-10.5,59-10.5c24,0,44.333,3.5,61,10.5s27,10.5,31,10.5V43.264z"/>
<path id="cclef" d="M13,451.264L13,451.264c2.667-14.667,10.333-28.667,23-42s26.333-20,41-20c21.334,0,44.334,9.667,69,29v-172
	c-16.666-14.667-34.666-22-54-22c-7.333,0-14.333,1.333-21,4c-47.333,18-71,46.667-71,86v295c1.333,14,4,26.333,8,37
	c11.333,26.667,32.333,44,63,52c7.333,2,14.333,3,21,3c20.666,0,37-7.333,49-22v-166c-21.334,15.333-42.666,23-64,23
	c-15.333,0-30.333-7-45-21c-14-14-19.667-37.167-19-52.5"/>
</svg>
